# xmcd
#
# Track frame offsets: 
#        150
#        22077
#        38497
#        59432
#        77667
#        93615
#        110672
#        132012
#        150837
#        172710
#        196472
#
# Disc length: 2663 seconds
#
# Revision: 2
# Processed by: cddbd v1.5.2PL0 Copyright (c) Steve Scherf et al.
# Submitted via: ExactAudioCopy v1.0b3
#
DISCID=800a650b
DTITLE=Bobby Murray - The Blues Is Now
DYEAR=1996
DGENRE=Blues
TTITLE0=The Future Is Now
TTITLE1=That's Allright
TTITLE2=Vicki
TTITLE3=Let My Guitar Do The Talking
TTITLE4=Loveland
TTITLE5=Broke 'n' Hungry
TTITLE6=Here I Am
TTITLE7=But Then Again (Taifa's Tune)
TTITLE8=Chillin' And Able
TTITLE9=The River's Invitation
TTITLE10=Variation #2
EXTD=
EXTT0=
EXTT1=
EXTT2=
EXTT3=
EXTT4=
EXTT5=
EXTT6=
EXTT7=
EXTT8=
EXTT9=
EXTT10=
PLAYORDER=
